<svg xmlns="http://www.w3.org/2000/svg" viewBox="0 0 48 48">
    <path fill="#1877F2" d="M44,24c0,-11.046 -8.954,-20 -20,-20c-11.046,0 -20,8.954 -20,20c0,9.981 7.308,18.255 16.875,19.757v-13.984h-5.078v-5.773h5.078v-4.406c0,-5.011 2.984,-7.773 7.544,-7.773c2.185,0 4.471,0.391 4.471,0.391v4.922h-2.519c-2.481,0 -3.255,1.539 -3.255,3.118v3.748h5.539l-0.886,5.773h-4.653v13.984c9.567,-1.502 16.875,-9.776 16.875,-19.757z"/>
    <path fill="#FFFFFF" d="M31.109,29.773l0.886,-5.773h-5.539v-3.748c0,-1.579 0.774,-3.118 3.255,-3.118h2.519v-4.922c0,0 -2.286,-0.391 -4.471,-0.391c-4.56,0 -7.544,2.762 -7.544,7.773v4.406h-5.078v5.773h5.078v13.984c1.018,0.16 2.061,0.243 3.125,0.243c1.064,0 2.107,-0.083 3.125,-0.243v-13.984h4.653z"/>
</svg> 